{
	"asset":{
		"generator":"Khronos glTF Blender I/O v3.6.27",
		"version":"2.0"
	},
	"scene":0,
	"scenes":[
		{
			"name":"Scene",
			"nodes":[
				9
			]
		}
	],
	"nodes":[
		{
			"mesh":0,
			"name":"oak 01_leafes_Mat.001_0"
		},
		{
			"mesh":1,
			"name":"oak 01_leafes_Mat.001_0.001"
		},
		{
			"children":[
				0,
				1
			],
			"name":"oak 01"
		},
		{
			"mesh":2,
			"name":"oak 01.001_trunk_Mat.001_0"
		},
		{
			"mesh":3,
			"name":"oak 01.001_trunk_Mat.001_0.001"
		},
		{
			"mesh":4,
			"name":"oak 01.001_trunk_Mat.001_0.002"
		},
		{
			"children":[
				3,
				4,
				5
			],
			"name":"oak 01.001"
		},
		{
			"children":[
				2,
				6
			],
			"name":"RootNode"
		},
		{
			"children":[
				7
			],
			"name":"e4a9b945b60a47099b7ed8ca539f430a.fbx",
			"rotation":[
				0.70710688829422,
				0,
				0,
				0.7071066498756409
			],
			"scale":[
				0.010000000707805157,
				0.010000001639127731,
				0.010000000707805157
			]
		},
		{
			"children":[
				8
			],
			"name":"Sketchfab_model",
			"rotation":[
				-0.70710688829422,
				0,
				0,
				0.7071066498756409
			],
			"scale":[
				13.501747131347656,
				9.63581657409668,
				13.501749038696289
			]
		}
	],
	"materials":[
		{
			"alphaMode":"BLEND",
			"doubleSided":true,
			"name":"leafes_Mat.001",
			"pbrMetallicRoughness":{
				"baseColorFactor":[
					0.153746098279953,
					0.4658348560333252,
					0.03670068457722664,
					1
				],
				"baseColorTexture":{
					"index":0
				},
				"metallicFactor":0
			}
		},
		{
			"doubleSided":true,
			"name":"trunk_Mat.001",
			"pbrMetallicRoughness":{
				"baseColorFactor":[
					0.22653400897979736,
					0.13164575397968292,
					0.06980875879526138,
					1
				],
				"metallicFactor":0,
				"roughnessFactor":0.9015756845474243
			}
		}
	],
	"meshes":[
		{
			"name":"oak 01_leafes_Mat.001_0",
			"primitives":[
				{
					"attributes":{
						"POSITION":0,
						"NORMAL":1,
						"TEXCOORD_0":2,
						"TEXCOORD_1":3
					},
					"indices":4,
					"material":0
				}
			]
		},
		{
			"name":"oak 01_leafes_Mat.001_0.001",
			"primitives":[
				{
					"attributes":{
						"POSITION":5,
						"NORMAL":6,
						"TEXCOORD_0":7,
						"TEXCOORD_1":8
					},
					"indices":9,
					"material":0
				}
			]
		},
		{
			"name":"oak 01.001_trunk_Mat.001_0",
			"primitives":[
				{
					"attributes":{
						"POSITION":10,
						"NORMAL":11,
						"TEXCOORD_0":12,
						"TEXCOORD_1":13
					},
					"indices":14,
					"material":1
				}
			]
		},
		{
			"name":"oak 01.001_trunk_Mat.001_0.001",
			"primitives":[
				{
					"attributes":{
						"POSITION":15,
						"NORMAL":16,
						"TEXCOORD_0":17,
						"TEXCOORD_1":18
					},
					"indices":19,
					"material":1
				}
			]
		},
		{
			"name":"oak 01.001_trunk_Mat.001_0.002",
			"primitives":[
				{
					"attributes":{
						"POSITION":20,
						"NORMAL":21,
						"TEXCOORD_0":22,
						"TEXCOORD_1":23
					},
					"indices":24,
					"material":1
				}
			]
		}
	],
	"textures":[
		{
			"sampler":0,
			"source":0
		}
	],
	"images":[
		{
			"mimeType":"image/png",
			"name":"Image_0",
			"uri":"Image_0.png"
		}
	],
	"accessors":[
		{
			"bufferView":0,
			"componentType":5126,
			"count":68204,
			"max":[
				17.871503829956055,
				56.396034240722656,
				18.477272033691406
			],
			"min":[
				-18.798599243164062,
				14.167021751403809,
				-19.571975708007812
			],
			"type":"VEC3"
		},
		{
			"bufferView":1,
			"componentType":5126,
			"count":68204,
			"type":"VEC3"
		},
		{
			"bufferView":2,
			"componentType":5126,
			"count":68204,
			"type":"VEC2"
		},
		{
			"bufferView":3,
			"componentType":5126,
			"count":68204,
			"type":"VEC2"
		},
		{
			"bufferView":4,
			"componentType":5125,
			"count":98298,
			"type":"SCALAR"
		},
		{
			"bufferView":5,
			"componentType":5126,
			"count":55826,
			"max":[
				17.565752029418945,
				55.94621276855469,
				19.200748443603516
			],
			"min":[
				-18.911367416381836,
				14.261934280395508,
				-19.70016098022461
			],
			"type":"VEC3"
		},
		{
			"bufferView":6,
			"componentType":5126,
			"count":55826,
			"type":"VEC3"
		},
		{
			"bufferView":7,
			"componentType":5126,
			"count":55826,
			"type":"VEC2"
		},
		{
			"bufferView":8,
			"componentType":5126,
			"count":55826,
			"type":"VEC2"
		},
		{
			"bufferView":9,
			"componentType":5123,
			"count":80658,
			"type":"SCALAR"
		},
		{
			"bufferView":10,
			"componentType":5126,
			"count":67902,
			"max":[
				16.837459564208984,
				55.26101303100586,
				18.27805519104004
			],
			"min":[
				-18.195764541625977,
				14.835824966430664,
				-13.081384658813477
			],
			"type":"VEC3"
		},
		{
			"bufferView":11,
			"componentType":5126,
			"count":67902,
			"type":"VEC3"
		},
		{
			"bufferView":12,
			"componentType":5126,
			"count":67902,
			"type":"VEC2"
		},
		{
			"bufferView":13,
			"componentType":5126,
			"count":67902,
			"type":"VEC2"
		},
		{
			"bufferView":14,
			"componentType":5125,
			"count":111342,
			"type":"SCALAR"
		},
		{
			"bufferView":15,
			"componentType":5126,
			"count":67060,
			"max":[
				15.174456596374512,
				54.719444274902344,
				14.652717590332031
			],
			"min":[
				-16.80191421508789,
				-1.0979881182038298e-07,
				-18.981842041015625
			],
			"type":"VEC3"
		},
		{
			"bufferView":16,
			"componentType":5126,
			"count":67060,
			"type":"VEC3"
		},
		{
			"bufferView":17,
			"componentType":5126,
			"count":67060,
			"type":"VEC2"
		},
		{
			"bufferView":18,
			"componentType":5126,
			"count":67060,
			"type":"VEC2"
		},
		{
			"bufferView":19,
			"componentType":5125,
			"count":133476,
			"type":"SCALAR"
		},
		{
			"bufferView":20,
			"componentType":5126,
			"count":47445,
			"max":[
				16.279285430908203,
				54.499961853027344,
				16.65343475341797
			],
			"min":[
				-16.73970603942871,
				15.082329750061035,
				-13.641866683959961
			],
			"type":"VEC3"
		},
		{
			"bufferView":21,
			"componentType":5126,
			"count":47445,
			"type":"VEC3"
		},
		{
			"bufferView":22,
			"componentType":5126,
			"count":47445,
			"type":"VEC2"
		},
		{
			"bufferView":23,
			"componentType":5126,
			"count":47445,
			"type":"VEC2"
		},
		{
			"bufferView":24,
			"componentType":5123,
			"count":122688,
			"type":"SCALAR"
		}
	],
	"bufferViews":[
		{
			"buffer":0,
			"byteLength":818448,
			"byteOffset":0,
			"target":34962
		},
		{
			"buffer":0,
			"byteLength":818448,
			"byteOffset":818448,
			"target":34962
		},
		{
			"buffer":0,
			"byteLength":545632,
			"byteOffset":1636896,
			"target":34962
		},
		{
			"buffer":0,
			"byteLength":545632,
			"byteOffset":2182528,
			"target":34962
		},
		{
			"buffer":0,
			"byteLength":393192,
			"byteOffset":2728160,
			"target":34963
		},
		{
			"buffer":0,
			"byteLength":669912,
			"byteOffset":3121352,
			"target":34962
		},
		{
			"buffer":0,
			"byteLength":669912,
			"byteOffset":3791264,
			"target":34962
		},
		{
			"buffer":0,
			"byteLength":446608,
			"byteOffset":4461176,
			"target":34962
		},
		{
			"buffer":0,
			"byteLength":446608,
			"byteOffset":4907784,
			"target":34962
		},
		{
			"buffer":0,
			"byteLength":161316,
			"byteOffset":5354392,
			"target":34963
		},
		{
			"buffer":0,
			"byteLength":814824,
			"byteOffset":5515708,
			"target":34962
		},
		{
			"buffer":0,
			"byteLength":814824,
			"byteOffset":6330532,
			"target":34962
		},
		{
			"buffer":0,
			"byteLength":543216,
			"byteOffset":7145356,
			"target":34962
		},
		{
			"buffer":0,
			"byteLength":543216,
			"byteOffset":7688572,
			"target":34962
		},
		{
			"buffer":0,
			"byteLength":445368,
			"byteOffset":8231788,
			"target":34963
		},
		{
			"buffer":0,
			"byteLength":804720,
			"byteOffset":8677156,
			"target":34962
		},
		{
			"buffer":0,
			"byteLength":804720,
			"byteOffset":9481876,
			"target":34962
		},
		{
			"buffer":0,
			"byteLength":536480,
			"byteOffset":10286596,
			"target":34962
		},
		{
			"buffer":0,
			"byteLength":536480,
			"byteOffset":10823076,
			"target":34962
		},
		{
			"buffer":0,
			"byteLength":533904,
			"byteOffset":11359556,
			"target":34963
		},
		{
			"buffer":0,
			"byteLength":569340,
			"byteOffset":11893460,
			"target":34962
		},
		{
			"buffer":0,
			"byteLength":569340,
			"byteOffset":12462800,
			"target":34962
		},
		{
			"buffer":0,
			"byteLength":379560,
			"byteOffset":13032140,
			"target":34962
		},
		{
			"buffer":0,
			"byteLength":379560,
			"byteOffset":13411700,
			"target":34962
		},
		{
			"buffer":0,
			"byteLength":245376,
			"byteOffset":13791260,
			"target":34963
		}
	],
	"samplers":[
		{
			"magFilter":9729,
			"minFilter":9987
		}
	],
	"buffers":[
		{
			"byteLength":14036636,
			"uri":"oak.bin"
		}
	]
}
