{
	"asset":{
		"generator":"Khronos glTF Blender I/O v3.6.27",
		"version":"2.0"
	},
	"scene":0,
	"scenes":[
		{
			"name":"Scene",
			"nodes":[
				0
			]
		}
	],
	"nodes":[
		{
			"mesh":0,
			"name":"Tree.3"
		}
	],
	"materials":[
		{
			"doubleSided":true,
			"name":"Tree_wood",
			"pbrMetallicRoughness":{
				"baseColorFactor":[
					0.21403329074382782,
					0.04623707756400108,
					0.013290640898048878,
					1
				],
				"metallicFactor":0,
				"roughnessFactor":0.699999988079071
			}
		},
		{
			"doubleSided":true,
			"name":"Tree_leaves",
			"pbrMetallicRoughness":{
				"baseColorFactor":[
					0.1503378301858902,
					0.46980583667755127,
					0,
					1
				],
				"metallicFactor":0,
				"roughnessFactor":0.6000000238418579
			}
		}
	],
	"meshes":[
		{
			"name":"Tree.3",
			"primitives":[
				{
					"attributes":{
						"POSITION":0,
						"NORMAL":1,
						"TEXCOORD_0":2
					},
					"indices":3,
					"material":0
				},
				{
					"attributes":{
						"POSITION":4,
						"NORMAL":5,
						"TEXCOORD_0":6
					},
					"indices":7,
					"material":1
				}
			]
		}
	],
	"accessors":[
		{
			"bufferView":0,
			"componentType":5126,
			"count":1332,
			"max":[
				3.085188627243042,
				5.0059003829956055,
				1.9970262050628662
			],
			"min":[
				-2.073627233505249,
				-3.552713678800501e-15,
				-1.2179532051086426
			],
			"type":"VEC3"
		},
		{
			"bufferView":1,
			"componentType":5126,
			"count":1332,
			"type":"VEC3"
		},
		{
			"bufferView":2,
			"componentType":5126,
			"count":1332,
			"type":"VEC2"
		},
		{
			"bufferView":3,
			"componentType":5123,
			"count":1332,
			"type":"SCALAR"
		},
		{
			"bufferView":4,
			"componentType":5126,
			"count":12960,
			"max":[
				4.437498092651367,
				7.616217136383057,
				3.1269562244415283
			],
			"min":[
				-3.7433598041534424,
				2.9736413955688477,
				-3.2508792877197266
			],
			"type":"VEC3"
		},
		{
			"bufferView":5,
			"componentType":5126,
			"count":12960,
			"type":"VEC3"
		},
		{
			"bufferView":6,
			"componentType":5126,
			"count":12960,
			"type":"VEC2"
		},
		{
			"bufferView":7,
			"componentType":5123,
			"count":12960,
			"type":"SCALAR"
		}
	],
	"bufferViews":[
		{
			"buffer":0,
			"byteLength":15984,
			"byteOffset":0,
			"target":34962
		},
		{
			"buffer":0,
			"byteLength":15984,
			"byteOffset":15984,
			"target":34962
		},
		{
			"buffer":0,
			"byteLength":10656,
			"byteOffset":31968,
			"target":34962
		},
		{
			"buffer":0,
			"byteLength":2664,
			"byteOffset":42624,
			"target":34963
		},
		{
			"buffer":0,
			"byteLength":155520,
			"byteOffset":45288,
			"target":34962
		},
		{
			"buffer":0,
			"byteLength":155520,
			"byteOffset":200808,
			"target":34962
		},
		{
			"buffer":0,
			"byteLength":103680,
			"byteOffset":356328,
			"target":34962
		},
		{
			"buffer":0,
			"byteLength":25920,
			"byteOffset":460008,
			"target":34963
		}
	],
	"buffers":[
		{
			"byteLength":485928,
			"uri":"low.bin"
		}
	]
}
