{
	"asset":{
		"generator":"Khronos glTF Blender I/O v3.6.27",
		"version":"2.0"
	},
	"scene":0,
	"scenes":[
		{
			"name":"Scene",
			"nodes":[
				34
			]
		}
	],
	"nodes":[
		{
			"mesh":0,
			"name":"Object_8"
		},
		{
			"children":[
				0
			],
			"name":"Icosphere.001_4",
			"rotation":[
				-0.17404583096504211,
				-0.039016880095005035,
				-0.19881224632263184,
				0.9636697769165039
			],
			"scale":[
				1.34835946559906,
				1.34835946559906,
				1.3483593463897705
			],
			"translation":[
				-0.5262277722358704,
				6.788214683532715,
				0.08930271863937378
			]
		},
		{
			"mesh":1,
			"name":"Object_10"
		},
		{
			"children":[
				2
			],
			"name":"Icosphere.002_5",
			"rotation":[
				0.058312349021434784,
				-0.05406340956687927,
				0.2088528275489807,
				0.9747088551521301
			],
			"scale":[
				1.163225769996643,
				1.163225769996643,
				1.1632258892059326
			],
			"translation":[
				1.917328953742981,
				6.614457130432129,
				1.6817165613174438
			]
		},
		{
			"mesh":2,
			"name":"Object_12"
		},
		{
			"children":[
				4
			],
			"name":"Icosphere.003_6",
			"translation":[
				0.3272068500518799,
				6.5919904708862305,
				-1.348578691482544
			]
		},
		{
			"mesh":3,
			"name":"Object_14"
		},
		{
			"children":[
				6
			],
			"name":"Icosphere.004_7",
			"rotation":[
				-0.15932169556617737,
				0.25271788239479065,
				-0.3717276453971863,
				0.8789590001106262
			],
			"scale":[
				0.6354638338088989,
				0.6354638934135437,
				0.6354638934135437
			],
			"translation":[
				-1.0835795402526855,
				6.343816757202148,
				-1.2311933040618896
			]
		},
		{
			"mesh":4,
			"name":"Object_16"
		},
		{
			"children":[
				8
			],
			"name":"Icosphere.005_8",
			"rotation":[
				-0.1740458458662033,
				-0.03901687264442444,
				-0.19881224632263184,
				0.9636697769165039
			],
			"scale":[
				0.9988155961036682,
				0.9988154172897339,
				0.9988154768943787
			],
			"translation":[
				0.04471230506896973,
				6.417387962341309,
				2.546562671661377
			]
		},
		{
			"mesh":5,
			"name":"Object_18"
		},
		{
			"children":[
				10
			],
			"name":"Icosphere.006_9",
			"rotation":[
				-0.1740458458662033,
				-0.03901687636971474,
				-0.19881224632263184,
				0.9636697769165039
			],
			"scale":[
				0.8245008587837219,
				0.8245007395744324,
				0.8245007991790771
			],
			"translation":[
				1.1702581644058228,
				6.313620090484619,
				-0.4229850769042969
			]
		},
		{
			"mesh":6,
			"name":"Object_20"
		},
		{
			"children":[
				12
			],
			"name":"Icosphere.007_10",
			"rotation":[
				-0.15932169556617737,
				0.25271788239479065,
				-0.3717276453971863,
				0.8789590001106262
			],
			"scale":[
				0.6354638338088989,
				0.6354638934135437,
				0.6354638934135437
			],
			"translation":[
				0.4651638865470886,
				7.242217540740967,
				0.15788492560386658
			]
		},
		{
			"mesh":7,
			"name":"Object_22"
		},
		{
			"children":[
				14
			],
			"name":"Icosphere.008_11",
			"translation":[
				0.5861635804176331,
				7.299343109130859,
				1.6230882406234741
			]
		},
		{
			"mesh":8,
			"name":"Object_24"
		},
		{
			"children":[
				16
			],
			"name":"Icosphere.009_12",
			"rotation":[
				-0.32424062490463257,
				0.21268033981323242,
				0.3756333291530609,
				0.8417450189590454
			],
			"scale":[
				0.7511081695556641,
				0.7511081695556641,
				0.7511081695556641
			],
			"translation":[
				-0.7354673147201538,
				6.781505584716797,
				1.6966955661773682
			]
		},
		{
			"mesh":9,
			"name":"Object_26"
		},
		{
			"children":[
				18
			],
			"name":"Icosphere.010_13",
			"rotation":[
				-0.17404583096504211,
				-0.039016880095005035,
				-0.19881224632263184,
				0.9636697769165039
			],
			"scale":[
				0.7476083040237427,
				0.7476084232330322,
				0.747608482837677
			],
			"translation":[
				1.419411301612854,
				6.933583736419678,
				0.5612033605575562
			]
		},
		{
			"mesh":10,
			"name":"Object_28"
		},
		{
			"children":[
				20
			],
			"name":"Icosphere.011_14",
			"rotation":[
				-0.17404581606388092,
				-0.039016880095005035,
				-0.19881224632263184,
				0.9636697769165039
			],
			"scale":[
				0.7475522756576538,
				0.747552216053009,
				0.747552216053009
			],
			"translation":[
				0.44698235392570496,
				6.097360610961914,
				1.161710500717163
			]
		},
		{
			"mesh":11,
			"name":"Object_30"
		},
		{
			"children":[
				22
			],
			"name":"Icosphere.012_15",
			"translation":[
				-0.4324304163455963,
				5.821964740753174,
				0.09134715795516968
			]
		},
		{
			"mesh":12,
			"name":"Object_32"
		},
		{
			"children":[
				24
			],
			"name":"Icosphere.013_16",
			"rotation":[
				0.06553421914577484,
				0.3528118133544922,
				-0.17400841414928436,
				0.9170333743095398
			],
			"scale":[
				0.6354639530181885,
				0.6354638338088989,
				0.6354638934135437
			],
			"translation":[
				1.9129599332809448,
				6.374846935272217,
				0.15574166178703308
			]
		},
		{
			"mesh":13,
			"name":"Object_34"
		},
		{
			"children":[
				26
			],
			"name":"Icosphere.014_17",
			"rotation":[
				-0.6327599287033081,
				0.1312425136566162,
				0.014877217821776867,
				0.762999951839447
			],
			"scale":[
				0.7476083040237427,
				0.747608482837677,
				0.7476083636283875
			],
			"translation":[
				-1.7814947366714478,
				6.202194690704346,
				-0.14925754070281982
			]
		},
		{
			"mesh":14,
			"name":"Object_6"
		},
		{
			"children":[
				28
			],
			"name":"Icosphere_3",
			"translation":[
				-1.7485694885253906,
				6.12242317199707,
				1.1953749656677246
			]
		},
		{
			"mesh":15,
			"name":"Object_4"
		},
		{
			"children":[
				30
			],
			"name":"Plane_2"
		},
		{
			"children":[
				1,
				3,
				5,
				7,
				9,
				11,
				13,
				15,
				17,
				19,
				21,
				23,
				25,
				27,
				29,
				31
			],
			"name":"GLTF_SceneRootNode",
			"rotation":[
				0.70710688829422,
				0,
				0,
				0.7071066498756409
			]
		},
		{
			"children":[
				32
			],
			"name":"root"
		},
		{
			"children":[
				33
			],
			"name":"Sketchfab_model",
			"rotation":[
				-0.70710688829422,
				0,
				0,
				0.7071066498756409
			]
		}
	],
	"materials":[
		{
			"doubleSided":true,
			"name":"GreenDark",
			"pbrMetallicRoughness":{
				"baseColorFactor":[
					0.004331610165536404,
					0.0522180013358593,
					0.008949180133640766,
					1
				],
				"metallicFactor":0,
				"roughnessFactor":0.5
			}
		},
		{
			"doubleSided":true,
			"name":"Green",
			"pbrMetallicRoughness":{
				"baseColorFactor":[
					0.016294099390506744,
					0.3505550026893616,
					0.04318990185856819,
					1
				],
				"metallicFactor":0,
				"roughnessFactor":0.5
			}
		},
		{
			"doubleSided":true,
			"name":"Brown",
			"pbrMetallicRoughness":{
				"baseColorFactor":[
					0.07657989859580994,
					0.045467499643564224,
					0.021482599899172783,
					1
				],
				"metallicFactor":0,
				"roughnessFactor":0.4000000059604645
			}
		}
	],
	"meshes":[
		{
			"name":"Object_2",
			"primitives":[
				{
					"attributes":{
						"POSITION":0,
						"NORMAL":1,
						"TEXCOORD_0":2
					},
					"indices":3,
					"material":0
				}
			]
		},
		{
			"name":"Object_3",
			"primitives":[
				{
					"attributes":{
						"POSITION":4,
						"NORMAL":5,
						"TEXCOORD_0":6
					},
					"indices":3,
					"material":1
				}
			]
		},
		{
			"name":"Object_4",
			"primitives":[
				{
					"attributes":{
						"POSITION":7,
						"NORMAL":8,
						"TEXCOORD_0":9
					},
					"indices":3,
					"material":1
				}
			]
		},
		{
			"name":"Object_5",
			"primitives":[
				{
					"attributes":{
						"POSITION":10,
						"NORMAL":11,
						"TEXCOORD_0":12
					},
					"indices":3,
					"material":1
				}
			]
		},
		{
			"name":"Object_6",
			"primitives":[
				{
					"attributes":{
						"POSITION":13,
						"NORMAL":14,
						"TEXCOORD_0":15
					},
					"indices":3,
					"material":0
				}
			]
		},
		{
			"name":"Object_7",
			"primitives":[
				{
					"attributes":{
						"POSITION":16,
						"NORMAL":17,
						"TEXCOORD_0":18
					},
					"indices":3,
					"material":0
				}
			]
		},
		{
			"name":"Object_8",
			"primitives":[
				{
					"attributes":{
						"POSITION":19,
						"NORMAL":20,
						"TEXCOORD_0":21
					},
					"indices":3,
					"material":1
				}
			]
		},
		{
			"name":"Object_9",
			"primitives":[
				{
					"attributes":{
						"POSITION":22,
						"NORMAL":23,
						"TEXCOORD_0":24
					},
					"indices":3,
					"material":1
				}
			]
		},
		{
			"name":"Object_10",
			"primitives":[
				{
					"attributes":{
						"POSITION":25,
						"NORMAL":26,
						"TEXCOORD_0":27
					},
					"indices":3,
					"material":1
				}
			]
		},
		{
			"name":"Object_11",
			"primitives":[
				{
					"attributes":{
						"POSITION":28,
						"NORMAL":29,
						"TEXCOORD_0":30
					},
					"indices":3,
					"material":0
				}
			]
		},
		{
			"name":"Object_12",
			"primitives":[
				{
					"attributes":{
						"POSITION":31,
						"NORMAL":32,
						"TEXCOORD_0":33
					},
					"indices":3,
					"material":0
				}
			]
		},
		{
			"name":"Object_13",
			"primitives":[
				{
					"attributes":{
						"POSITION":34,
						"NORMAL":35,
						"TEXCOORD_0":36
					},
					"indices":3,
					"material":1
				}
			]
		},
		{
			"name":"Object_14",
			"primitives":[
				{
					"attributes":{
						"POSITION":37,
						"NORMAL":38,
						"TEXCOORD_0":39
					},
					"indices":3,
					"material":1
				}
			]
		},
		{
			"name":"Object_15",
			"primitives":[
				{
					"attributes":{
						"POSITION":40,
						"NORMAL":41,
						"TEXCOORD_0":42
					},
					"indices":3,
					"material":0
				}
			]
		},
		{
			"name":"Object_1",
			"primitives":[
				{
					"attributes":{
						"POSITION":43,
						"NORMAL":44,
						"TEXCOORD_0":45
					},
					"indices":3,
					"material":1
				}
			]
		},
		{
			"name":"Object_0",
			"primitives":[
				{
					"attributes":{
						"POSITION":46,
						"NORMAL":47
					},
					"indices":48,
					"material":2
				}
			]
		}
	],
	"accessors":[
		{
			"bufferView":0,
			"componentType":5126,
			"count":60,
			"max":[
				0.8944249749183655,
				1.0768482685089111,
				0.961968183517456
			],
			"min":[
				-0.9189778566360474,
				-0.9029368758201599,
				-0.86887526512146
			],
			"type":"VEC3"
		},
		{
			"bufferView":1,
			"componentType":5126,
			"count":60,
			"type":"VEC3"
		},
		{
			"bufferView":2,
			"componentType":5126,
			"count":60,
			"type":"VEC2"
		},
		{
			"bufferView":3,
			"componentType":5123,
			"count":60,
			"type":"SCALAR"
		},
		{
			"bufferView":4,
			"componentType":5126,
			"count":60,
			"max":[
				0.8944249749183655,
				1,
				0.762359082698822
			],
			"min":[
				-0.8944249749183655,
				-0.8226375579833984,
				-0.9180101156234741
			],
			"type":"VEC3"
		},
		{
			"bufferView":5,
			"componentType":5126,
			"count":60,
			"type":"VEC3"
		},
		{
			"bufferView":6,
			"componentType":5126,
			"count":60,
			"type":"VEC2"
		},
		{
			"bufferView":7,
			"componentType":5126,
			"count":60,
			"max":[
				0.8944249749183655,
				1,
				0.8506399989128113
			],
			"min":[
				-0.8944249749183655,
				-1,
				-0.8506399989128113
			],
			"type":"VEC3"
		},
		{
			"bufferView":8,
			"componentType":5126,
			"count":60,
			"type":"VEC3"
		},
		{
			"bufferView":9,
			"componentType":5126,
			"count":60,
			"type":"VEC2"
		},
		{
			"bufferView":10,
			"componentType":5126,
			"count":60,
			"max":[
				0.8944249749183655,
				1,
				0.8506399989128113
			],
			"min":[
				-0.8944249749183655,
				-1,
				-0.8506399989128113
			],
			"type":"VEC3"
		},
		{
			"bufferView":11,
			"componentType":5126,
			"count":60,
			"type":"VEC3"
		},
		{
			"bufferView":12,
			"componentType":5126,
			"count":60,
			"type":"VEC2"
		},
		{
			"bufferView":13,
			"componentType":5126,
			"count":60,
			"max":[
				0.8944249749183655,
				1.0768482685089111,
				0.961968183517456
			],
			"min":[
				-0.9189778566360474,
				-0.9029368758201599,
				-0.86887526512146
			],
			"type":"VEC3"
		},
		{
			"bufferView":14,
			"componentType":5126,
			"count":60,
			"type":"VEC3"
		},
		{
			"bufferView":15,
			"componentType":5126,
			"count":60,
			"type":"VEC2"
		},
		{
			"bufferView":16,
			"componentType":5126,
			"count":60,
			"max":[
				0.8944249749183655,
				1.0768482685089111,
				0.961968183517456
			],
			"min":[
				-0.9189778566360474,
				-0.9029368758201599,
				-0.86887526512146
			],
			"type":"VEC3"
		},
		{
			"bufferView":17,
			"componentType":5126,
			"count":60,
			"type":"VEC3"
		},
		{
			"bufferView":18,
			"componentType":5126,
			"count":60,
			"type":"VEC2"
		},
		{
			"bufferView":19,
			"componentType":5126,
			"count":60,
			"max":[
				0.8944249749183655,
				1,
				0.8506399989128113
			],
			"min":[
				-0.8944249749183655,
				-1,
				-0.8506399989128113
			],
			"type":"VEC3"
		},
		{
			"bufferView":20,
			"componentType":5126,
			"count":60,
			"type":"VEC3"
		},
		{
			"bufferView":21,
			"componentType":5126,
			"count":60,
			"type":"VEC2"
		},
		{
			"bufferView":22,
			"componentType":5126,
			"count":60,
			"max":[
				0.8944249749183655,
				1,
				0.8506399989128113
			],
			"min":[
				-0.8944249749183655,
				-1,
				-0.8506399989128113
			],
			"type":"VEC3"
		},
		{
			"bufferView":23,
			"componentType":5126,
			"count":60,
			"type":"VEC3"
		},
		{
			"bufferView":24,
			"componentType":5126,
			"count":60,
			"type":"VEC2"
		},
		{
			"bufferView":25,
			"componentType":5126,
			"count":60,
			"max":[
				0.8944249749183655,
				1,
				0.8506399989128113
			],
			"min":[
				-0.8944249749183655,
				-1,
				-0.8506399989128113
			],
			"type":"VEC3"
		},
		{
			"bufferView":26,
			"componentType":5126,
			"count":60,
			"type":"VEC3"
		},
		{
			"bufferView":27,
			"componentType":5126,
			"count":60,
			"type":"VEC2"
		},
		{
			"bufferView":28,
			"componentType":5126,
			"count":60,
			"max":[
				0.8944249749183655,
				1.0768482685089111,
				0.961968183517456
			],
			"min":[
				-0.9189778566360474,
				-0.9029368758201599,
				-0.86887526512146
			],
			"type":"VEC3"
		},
		{
			"bufferView":29,
			"componentType":5126,
			"count":60,
			"type":"VEC3"
		},
		{
			"bufferView":30,
			"componentType":5126,
			"count":60,
			"type":"VEC2"
		},
		{
			"bufferView":31,
			"componentType":5126,
			"count":60,
			"max":[
				0.8944249749183655,
				1.0768482685089111,
				0.961968183517456
			],
			"min":[
				-0.9189778566360474,
				-0.9029368758201599,
				-0.86887526512146
			],
			"type":"VEC3"
		},
		{
			"bufferView":32,
			"componentType":5126,
			"count":60,
			"type":"VEC3"
		},
		{
			"bufferView":33,
			"componentType":5126,
			"count":60,
			"type":"VEC2"
		},
		{
			"bufferView":34,
			"componentType":5126,
			"count":60,
			"max":[
				0.8944249749183655,
				1,
				0.8506399989128113
			],
			"min":[
				-0.8944249749183655,
				-1,
				-0.8506399989128113
			],
			"type":"VEC3"
		},
		{
			"bufferView":35,
			"componentType":5126,
			"count":60,
			"type":"VEC3"
		},
		{
			"bufferView":36,
			"componentType":5126,
			"count":60,
			"type":"VEC2"
		},
		{
			"bufferView":37,
			"componentType":5126,
			"count":60,
			"max":[
				0.8944249749183655,
				1,
				0.8506399989128113
			],
			"min":[
				-0.8944249749183655,
				-1,
				-0.8506399989128113
			],
			"type":"VEC3"
		},
		{
			"bufferView":38,
			"componentType":5126,
			"count":60,
			"type":"VEC3"
		},
		{
			"bufferView":39,
			"componentType":5126,
			"count":60,
			"type":"VEC2"
		},
		{
			"bufferView":40,
			"componentType":5126,
			"count":60,
			"max":[
				0.8944249749183655,
				1.0768482685089111,
				0.961968183517456
			],
			"min":[
				-0.9189778566360474,
				-0.9029368758201599,
				-0.86887526512146
			],
			"type":"VEC3"
		},
		{
			"bufferView":41,
			"componentType":5126,
			"count":60,
			"type":"VEC3"
		},
		{
			"bufferView":42,
			"componentType":5126,
			"count":60,
			"type":"VEC2"
		},
		{
			"bufferView":43,
			"componentType":5126,
			"count":60,
			"max":[
				0.8944249749183655,
				1,
				0.8506399989128113
			],
			"min":[
				-0.8944249749183655,
				-1,
				-0.8506399989128113
			],
			"type":"VEC3"
		},
		{
			"bufferView":44,
			"componentType":5126,
			"count":60,
			"type":"VEC3"
		},
		{
			"bufferView":45,
			"componentType":5126,
			"count":60,
			"type":"VEC2"
		},
		{
			"bufferView":46,
			"componentType":5126,
			"count":1779,
			"max":[
				1.867747187614441,
				6.307383060455322,
				2.7646889686584473
			],
			"min":[
				-1.789007544517517,
				-0.2848320007324219,
				-1.590774655342102
			],
			"type":"VEC3"
		},
		{
			"bufferView":47,
			"componentType":5126,
			"count":1779,
			"type":"VEC3"
		},
		{
			"bufferView":48,
			"componentType":5123,
			"count":4755,
			"type":"SCALAR"
		}
	],
	"bufferViews":[
		{
			"buffer":0,
			"byteLength":720,
			"byteOffset":0,
			"target":34962
		},
		{
			"buffer":0,
			"byteLength":720,
			"byteOffset":720,
			"target":34962
		},
		{
			"buffer":0,
			"byteLength":480,
			"byteOffset":1440,
			"target":34962
		},
		{
			"buffer":0,
			"byteLength":120,
			"byteOffset":1920,
			"target":34963
		},
		{
			"buffer":0,
			"byteLength":720,
			"byteOffset":2040,
			"target":34962
		},
		{
			"buffer":0,
			"byteLength":720,
			"byteOffset":2760,
			"target":34962
		},
		{
			"buffer":0,
			"byteLength":480,
			"byteOffset":3480,
			"target":34962
		},
		{
			"buffer":0,
			"byteLength":720,
			"byteOffset":3960,
			"target":34962
		},
		{
			"buffer":0,
			"byteLength":720,
			"byteOffset":4680,
			"target":34962
		},
		{
			"buffer":0,
			"byteLength":480,
			"byteOffset":5400,
			"target":34962
		},
		{
			"buffer":0,
			"byteLength":720,
			"byteOffset":5880,
			"target":34962
		},
		{
			"buffer":0,
			"byteLength":720,
			"byteOffset":6600,
			"target":34962
		},
		{
			"buffer":0,
			"byteLength":480,
			"byteOffset":7320,
			"target":34962
		},
		{
			"buffer":0,
			"byteLength":720,
			"byteOffset":7800,
			"target":34962
		},
		{
			"buffer":0,
			"byteLength":720,
			"byteOffset":8520,
			"target":34962
		},
		{
			"buffer":0,
			"byteLength":480,
			"byteOffset":9240,
			"target":34962
		},
		{
			"buffer":0,
			"byteLength":720,
			"byteOffset":9720,
			"target":34962
		},
		{
			"buffer":0,
			"byteLength":720,
			"byteOffset":10440,
			"target":34962
		},
		{
			"buffer":0,
			"byteLength":480,
			"byteOffset":11160,
			"target":34962
		},
		{
			"buffer":0,
			"byteLength":720,
			"byteOffset":11640,
			"target":34962
		},
		{
			"buffer":0,
			"byteLength":720,
			"byteOffset":12360,
			"target":34962
		},
		{
			"buffer":0,
			"byteLength":480,
			"byteOffset":13080,
			"target":34962
		},
		{
			"buffer":0,
			"byteLength":720,
			"byteOffset":13560,
			"target":34962
		},
		{
			"buffer":0,
			"byteLength":720,
			"byteOffset":14280,
			"target":34962
		},
		{
			"buffer":0,
			"byteLength":480,
			"byteOffset":15000,
			"target":34962
		},
		{
			"buffer":0,
			"byteLength":720,
			"byteOffset":15480,
			"target":34962
		},
		{
			"buffer":0,
			"byteLength":720,
			"byteOffset":16200,
			"target":34962
		},
		{
			"buffer":0,
			"byteLength":480,
			"byteOffset":16920,
			"target":34962
		},
		{
			"buffer":0,
			"byteLength":720,
			"byteOffset":17400,
			"target":34962
		},
		{
			"buffer":0,
			"byteLength":720,
			"byteOffset":18120,
			"target":34962
		},
		{
			"buffer":0,
			"byteLength":480,
			"byteOffset":18840,
			"target":34962
		},
		{
			"buffer":0,
			"byteLength":720,
			"byteOffset":19320,
			"target":34962
		},
		{
			"buffer":0,
			"byteLength":720,
			"byteOffset":20040,
			"target":34962
		},
		{
			"buffer":0,
			"byteLength":480,
			"byteOffset":20760,
			"target":34962
		},
		{
			"buffer":0,
			"byteLength":720,
			"byteOffset":21240,
			"target":34962
		},
		{
			"buffer":0,
			"byteLength":720,
			"byteOffset":21960,
			"target":34962
		},
		{
			"buffer":0,
			"byteLength":480,
			"byteOffset":22680,
			"target":34962
		},
		{
			"buffer":0,
			"byteLength":720,
			"byteOffset":23160,
			"target":34962
		},
		{
			"buffer":0,
			"byteLength":720,
			"byteOffset":23880,
			"target":34962
		},
		{
			"buffer":0,
			"byteLength":480,
			"byteOffset":24600,
			"target":34962
		},
		{
			"buffer":0,
			"byteLength":720,
			"byteOffset":25080,
			"target":34962
		},
		{
			"buffer":0,
			"byteLength":720,
			"byteOffset":25800,
			"target":34962
		},
		{
			"buffer":0,
			"byteLength":480,
			"byteOffset":26520,
			"target":34962
		},
		{
			"buffer":0,
			"byteLength":720,
			"byteOffset":27000,
			"target":34962
		},
		{
			"buffer":0,
			"byteLength":720,
			"byteOffset":27720,
			"target":34962
		},
		{
			"buffer":0,
			"byteLength":480,
			"byteOffset":28440,
			"target":34962
		},
		{
			"buffer":0,
			"byteLength":21348,
			"byteOffset":28920,
			"target":34962
		},
		{
			"buffer":0,
			"byteLength":21348,
			"byteOffset":50268,
			"target":34962
		},
		{
			"buffer":0,
			"byteLength":9510,
			"byteOffset":71616,
			"target":34963
		}
	],
	"buffers":[
		{
			"byteLength":81128,
			"uri":"oak.bin"
		}
	]
}
