{
	"asset":{
		"generator":"Khronos glTF Blender I/O v3.6.27",
		"version":"2.0"
	},
	"scene":0,
	"scenes":[
		{
			"name":"Scene",
			"nodes":[
				6
			]
		}
	],
	"nodes":[
		{
			"mesh":0,
			"name":"Canopy_leaf_0"
		},
		{
			"children":[
				0
			],
			"name":"Canopy",
			"rotation":[
				-0.6128318905830383,
				-0.3751555383205414,
				0.23557689785957336,
				0.6543692350387573
			],
			"scale":[
				158.43673706054688,
				158.43673706054688,
				158.4367218017578
			],
			"translation":[
				-847.64892578125,
				1706.6995849609375,
				439.7239685058594
			]
		},
		{
			"mesh":1,
			"name":"Trunk_Trunk_0"
		},
		{
			"children":[
				2
			],
			"name":"Trunk",
			"rotation":[
				-0.70710688829422,
				0,
				0,
				0.7071066498756409
			],
			"scale":[
				100,
				99.99999237060547,
				99.99999237060547
			]
		},
		{
			"children":[
				1,
				3
			],
			"name":"RootNode"
		},
		{
			"children":[
				4
			],
			"name":"99ad2b699d214e81a6c52c0b659cd205.fbx",
			"rotation":[
				0.70710688829422,
				0,
				0,
				0.7071066498756409
			],
			"scale":[
				0.009999999776482582,
				0.010000000707805157,
				0.010000000707805157
			]
		},
		{
			"children":[
				5
			],
			"name":"Sketchfab_model",
			"rotation":[
				-0.70710688829422,
				0,
				0,
				0.7071066498756409
			]
		}
	],
	"materials":[
		{
			"doubleSided":true,
			"name":"leaf",
			"normalTexture":{
				"index":0
			},
			"pbrMetallicRoughness":{
				"baseColorTexture":{
					"index":1
				},
				"metallicFactor":0
			}
		},
		{
			"doubleSided":true,
			"name":"Trunk",
			"normalTexture":{
				"index":2
			},
			"occlusionTexture":{
				"index":3
			},
			"pbrMetallicRoughness":{
				"baseColorTexture":{
					"index":4
				},
				"metallicFactor":0,
				"metallicRoughnessTexture":{
					"index":3
				}
			}
		}
	],
	"meshes":[
		{
			"name":"Canopy_leaf_0",
			"primitives":[
				{
					"attributes":{
						"POSITION":0,
						"NORMAL":1,
						"TEXCOORD_0":2
					},
					"indices":3,
					"material":0
				}
			]
		},
		{
			"name":"Trunk_Trunk_0",
			"primitives":[
				{
					"attributes":{
						"POSITION":4,
						"NORMAL":5,
						"TEXCOORD_0":6,
						"TEXCOORD_1":7,
						"TEXCOORD_2":8
					},
					"indices":9,
					"material":1
				}
			]
		}
	],
	"textures":[
		{
			"sampler":0,
			"source":0
		},
		{
			"sampler":0,
			"source":1
		},
		{
			"sampler":0,
			"source":2
		},
		{
			"sampler":0,
			"source":3
		},
		{
			"sampler":0,
			"source":4
		}
	],
	"images":[
		{
			"mimeType":"image/png",
			"name":"leaf_normal",
			"uri":"leaf_normal.png"
		},
		{
			"mimeType":"image/png",
			"name":"leaf_baseColor",
			"uri":"leaf_baseColor.png"
		},
		{
			"mimeType":"image/png",
			"name":"Trunk_normal",
			"uri":"Trunk_normal.png"
		},
		{
			"mimeType":"image/png",
			"name":"Trunk_metallicRoughness",
			"uri":"Trunk_metallicRoughness.png"
		},
		{
			"mimeType":"image/png",
			"name":"Trunk_baseColor",
			"uri":"Trunk_baseColor.png"
		}
	],
	"accessors":[
		{
			"bufferView":0,
			"componentType":5126,
			"count":10876,
			"max":[
				10.766979217529297,
				15.414839744567871,
				4.316710472106934
			],
			"min":[
				-9.48669719696045,
				-10.312439918518066,
				-16.58332061767578
			],
			"type":"VEC3"
		},
		{
			"bufferView":1,
			"componentType":5126,
			"count":10876,
			"type":"VEC3"
		},
		{
			"bufferView":2,
			"componentType":5126,
			"count":10876,
			"type":"VEC2"
		},
		{
			"bufferView":3,
			"componentType":5123,
			"count":24498,
			"type":"SCALAR"
		},
		{
			"bufferView":4,
			"componentType":5126,
			"count":3388,
			"max":[
				13.110264778137207,
				17.291179656982422,
				24.829559326171875
			],
			"min":[
				-11.442774772644043,
				-16.290884017944336,
				0.018652215600013733
			],
			"type":"VEC3"
		},
		{
			"bufferView":5,
			"componentType":5126,
			"count":3388,
			"type":"VEC3"
		},
		{
			"bufferView":6,
			"componentType":5126,
			"count":3388,
			"type":"VEC2"
		},
		{
			"bufferView":7,
			"componentType":5126,
			"count":3388,
			"type":"VEC2"
		},
		{
			"bufferView":8,
			"componentType":5126,
			"count":3388,
			"type":"VEC2"
		},
		{
			"bufferView":9,
			"componentType":5123,
			"count":13530,
			"type":"SCALAR"
		}
	],
	"bufferViews":[
		{
			"buffer":0,
			"byteLength":130512,
			"byteOffset":0,
			"target":34962
		},
		{
			"buffer":0,
			"byteLength":130512,
			"byteOffset":130512,
			"target":34962
		},
		{
			"buffer":0,
			"byteLength":87008,
			"byteOffset":261024,
			"target":34962
		},
		{
			"buffer":0,
			"byteLength":48996,
			"byteOffset":348032,
			"target":34963
		},
		{
			"buffer":0,
			"byteLength":40656,
			"byteOffset":397028,
			"target":34962
		},
		{
			"buffer":0,
			"byteLength":40656,
			"byteOffset":437684,
			"target":34962
		},
		{
			"buffer":0,
			"byteLength":27104,
			"byteOffset":478340,
			"target":34962
		},
		{
			"buffer":0,
			"byteLength":27104,
			"byteOffset":505444,
			"target":34962
		},
		{
			"buffer":0,
			"byteLength":27104,
			"byteOffset":532548,
			"target":34962
		},
		{
			"buffer":0,
			"byteLength":27060,
			"byteOffset":559652,
			"target":34963
		}
	],
	"samplers":[
		{
			"magFilter":9729,
			"minFilter":9987
		}
	],
	"buffers":[
		{
			"byteLength":586712,
			"uri":"OAK.bin"
		}
	]
}
